<mxfile host="app.diagrams.net" modified="2023-04-13T20:25:24.862Z" agent="Mozilla/5.0 (Windows NT 10.0; Win64; x64) AppleWebKit/537.36 (KHTML, like Gecko) Chrome/112.0.0.0 Safari/537.36 Edg/112.0.1722.39" etag="WOXTkqZxbeVtZAQS_M_H" version="21.1.5" type="github">
  <diagram name="Page-1" id="c37626ed-c26b-45fb-9056-f9ebc6bb27b6">
    <mxGraphModel dx="1722" dy="93" grid="1" gridSize="10" guides="1" tooltips="1" connect="1" arrows="1" fold="1" page="1" pageScale="1" pageWidth="1100" pageHeight="850" background="none" math="0" shadow="0">
      <root>
        <mxCell id="0" />
        <mxCell id="1" parent="0" />
        <mxCell id="XvvMgI4vBFlba0enUQ60-3" value="" style="shape=mxgraph.cisco.computers_and_peripherals.pc;sketch=0;html=1;pointerEvents=1;dashed=0;fillColor=#036897;strokeColor=#ffffff;strokeWidth=2;verticalLabelPosition=bottom;verticalAlign=top;align=center;outlineConnect=0;" parent="1" vertex="1">
          <mxGeometry x="-140" y="1150" width="78" height="70" as="geometry" />
        </mxCell>
        <mxCell id="XvvMgI4vBFlba0enUQ60-4" value="" style="shape=mxgraph.cisco.computers_and_peripherals.pc;sketch=0;html=1;pointerEvents=1;dashed=0;fillColor=#036897;strokeColor=#ffffff;strokeWidth=2;verticalLabelPosition=bottom;verticalAlign=top;align=center;outlineConnect=0;" parent="1" vertex="1">
          <mxGeometry x="-135" y="1010" width="78" height="70" as="geometry" />
        </mxCell>
        <mxCell id="XvvMgI4vBFlba0enUQ60-5" value="" style="shape=mxgraph.cisco.switches.workgroup_switch;sketch=0;html=1;pointerEvents=1;dashed=0;fillColor=#036897;strokeColor=#ffffff;strokeWidth=2;verticalLabelPosition=bottom;verticalAlign=top;align=center;outlineConnect=0;" parent="1" vertex="1">
          <mxGeometry x="430" y="1320" width="101" height="50" as="geometry" />
        </mxCell>
        <mxCell id="XvvMgI4vBFlba0enUQ60-6" value="" style="shape=mxgraph.cisco.switches.workgroup_switch;sketch=0;html=1;pointerEvents=1;dashed=0;fillColor=#036897;strokeColor=#ffffff;strokeWidth=2;verticalLabelPosition=bottom;verticalAlign=top;align=center;outlineConnect=0;" parent="1" vertex="1">
          <mxGeometry x="231.5" y="1320" width="101" height="50" as="geometry" />
        </mxCell>
        <mxCell id="XvvMgI4vBFlba0enUQ60-8" value="" style="shape=mxgraph.cisco.switches.workgroup_switch;sketch=0;html=1;pointerEvents=1;dashed=0;fillColor=#036897;strokeColor=#ffffff;strokeWidth=2;verticalLabelPosition=bottom;verticalAlign=top;align=center;outlineConnect=0;" parent="1" vertex="1">
          <mxGeometry x="30" y="1320" width="101" height="50" as="geometry" />
        </mxCell>
        <mxCell id="XvvMgI4vBFlba0enUQ60-9" value="" style="shape=mxgraph.cisco.routers.router;sketch=0;html=1;pointerEvents=1;dashed=0;fillColor=#036897;strokeColor=#ffffff;strokeWidth=2;verticalLabelPosition=bottom;verticalAlign=top;align=center;outlineConnect=0;" parent="1" vertex="1">
          <mxGeometry x="241.5" y="1450" width="78" height="53" as="geometry" />
        </mxCell>
        <mxCell id="XvvMgI4vBFlba0enUQ60-10" value="" style="shape=mxgraph.cisco.servers.fileserver;sketch=0;html=1;pointerEvents=1;dashed=0;fillColor=#036897;strokeColor=#ffffff;strokeWidth=2;verticalLabelPosition=bottom;verticalAlign=top;align=center;outlineConnect=0;" parent="1" vertex="1">
          <mxGeometry x="250" y="1580" width="61" height="90" as="geometry" />
        </mxCell>
        <mxCell id="XvvMgI4vBFlba0enUQ60-12" value="" style="shape=mxgraph.cisco.switches.workgroup_switch;sketch=0;html=1;pointerEvents=1;dashed=0;fillColor=#036897;strokeColor=#ffffff;strokeWidth=2;verticalLabelPosition=bottom;verticalAlign=top;align=center;outlineConnect=0;" parent="1" vertex="1">
          <mxGeometry x="30" y="1150" width="101" height="50" as="geometry" />
        </mxCell>
        <mxCell id="XvvMgI4vBFlba0enUQ60-13" value="" style="shape=mxgraph.cisco.switches.workgroup_switch;sketch=0;html=1;pointerEvents=1;dashed=0;fillColor=#036897;strokeColor=#ffffff;strokeWidth=2;verticalLabelPosition=bottom;verticalAlign=top;align=center;outlineConnect=0;" parent="1" vertex="1">
          <mxGeometry x="430" y="1150" width="101" height="50" as="geometry" />
        </mxCell>
        <mxCell id="dDXD2PsUgnubhzzMAjPv-3" value="" style="endArrow=none;html=1;rounded=0;" edge="1" parent="1">
          <mxGeometry width="50" height="50" relative="1" as="geometry">
            <mxPoint x="281.5" y="1450" as="sourcePoint" />
            <mxPoint x="281.5" y="1370" as="targetPoint" />
          </mxGeometry>
        </mxCell>
        <mxCell id="dDXD2PsUgnubhzzMAjPv-5" value="" style="endArrow=none;html=1;rounded=0;" edge="1" parent="1">
          <mxGeometry width="50" height="50" relative="1" as="geometry">
            <mxPoint x="281.5" y="1580" as="sourcePoint" />
            <mxPoint x="281.5" y="1500" as="targetPoint" />
          </mxGeometry>
        </mxCell>
        <mxCell id="dDXD2PsUgnubhzzMAjPv-6" value="" style="endArrow=none;html=1;rounded=0;" edge="1" parent="1">
          <mxGeometry width="50" height="50" relative="1" as="geometry">
            <mxPoint x="120" y="1350" as="sourcePoint" />
            <mxPoint x="231.5" y="1350" as="targetPoint" />
          </mxGeometry>
        </mxCell>
        <mxCell id="dDXD2PsUgnubhzzMAjPv-7" value="" style="endArrow=none;html=1;rounded=0;" edge="1" parent="1">
          <mxGeometry width="50" height="50" relative="1" as="geometry">
            <mxPoint x="319.5" y="1350" as="sourcePoint" />
            <mxPoint x="431" y="1350" as="targetPoint" />
          </mxGeometry>
        </mxCell>
        <mxCell id="dDXD2PsUgnubhzzMAjPv-8" value="" style="endArrow=none;html=1;rounded=0;entryX=0.5;entryY=0.98;entryDx=0;entryDy=0;entryPerimeter=0;" edge="1" parent="1" target="XvvMgI4vBFlba0enUQ60-12">
          <mxGeometry width="50" height="50" relative="1" as="geometry">
            <mxPoint x="80" y="1320" as="sourcePoint" />
            <mxPoint x="80" y="1230" as="targetPoint" />
          </mxGeometry>
        </mxCell>
        <mxCell id="dDXD2PsUgnubhzzMAjPv-9" value="" style="endArrow=none;html=1;rounded=0;entryX=0.5;entryY=0.98;entryDx=0;entryDy=0;entryPerimeter=0;" edge="1" parent="1">
          <mxGeometry width="50" height="50" relative="1" as="geometry">
            <mxPoint x="480" y="1320" as="sourcePoint" />
            <mxPoint x="481" y="1199" as="targetPoint" />
          </mxGeometry>
        </mxCell>
        <mxCell id="dDXD2PsUgnubhzzMAjPv-10" value="" style="endArrow=none;html=1;rounded=0;" edge="1" parent="1">
          <mxGeometry width="50" height="50" relative="1" as="geometry">
            <mxPoint x="100" y="1360" as="sourcePoint" />
            <mxPoint x="241.5" y="1470" as="targetPoint" />
          </mxGeometry>
        </mxCell>
        <mxCell id="dDXD2PsUgnubhzzMAjPv-12" value="" style="endArrow=none;html=1;rounded=0;entryX=0.919;entryY=0.506;entryDx=0;entryDy=0;entryPerimeter=0;" edge="1" parent="1" source="XvvMgI4vBFlba0enUQ60-5" target="XvvMgI4vBFlba0enUQ60-9">
          <mxGeometry width="50" height="50" relative="1" as="geometry">
            <mxPoint x="159" y="1379" as="sourcePoint" />
            <mxPoint x="320" y="1480" as="targetPoint" />
          </mxGeometry>
        </mxCell>
        <mxCell id="dDXD2PsUgnubhzzMAjPv-13" value="" style="endArrow=none;html=1;rounded=0;" edge="1" parent="1">
          <mxGeometry width="50" height="50" relative="1" as="geometry">
            <mxPoint x="-170" y="1345" as="sourcePoint" />
            <mxPoint x="30" y="1344.5" as="targetPoint" />
          </mxGeometry>
        </mxCell>
        <mxCell id="dDXD2PsUgnubhzzMAjPv-14" value="" style="shape=mxgraph.cisco.switches.workgroup_switch;sketch=0;html=1;pointerEvents=1;dashed=0;fillColor=#036897;strokeColor=#ffffff;strokeWidth=2;verticalLabelPosition=bottom;verticalAlign=top;align=center;outlineConnect=0;" vertex="1" parent="1">
          <mxGeometry x="-260" y="1320" width="101" height="50" as="geometry" />
        </mxCell>
        <mxCell id="dDXD2PsUgnubhzzMAjPv-15" value="" style="endArrow=none;html=1;rounded=0;" edge="1" parent="1" source="dDXD2PsUgnubhzzMAjPv-16">
          <mxGeometry width="50" height="50" relative="1" as="geometry">
            <mxPoint x="58" y="1450" as="sourcePoint" />
            <mxPoint x="58" y="1370" as="targetPoint" />
          </mxGeometry>
        </mxCell>
        <mxCell id="dDXD2PsUgnubhzzMAjPv-16" value="" style="shape=mxgraph.cisco.switches.workgroup_switch;sketch=0;html=1;pointerEvents=1;dashed=0;fillColor=#036897;strokeColor=#ffffff;strokeWidth=2;verticalLabelPosition=bottom;verticalAlign=top;align=center;outlineConnect=0;" vertex="1" parent="1">
          <mxGeometry x="-150" y="1510" width="101" height="50" as="geometry" />
        </mxCell>
        <mxCell id="dDXD2PsUgnubhzzMAjPv-17" value="" style="shape=mxgraph.cisco.switches.workgroup_switch;sketch=0;html=1;pointerEvents=1;dashed=0;fillColor=#036897;strokeColor=#ffffff;strokeWidth=2;verticalLabelPosition=bottom;verticalAlign=top;align=center;outlineConnect=0;" vertex="1" parent="1">
          <mxGeometry x="580" y="1510" width="101" height="50" as="geometry" />
        </mxCell>
        <mxCell id="dDXD2PsUgnubhzzMAjPv-20" value="" style="endArrow=none;html=1;rounded=0;entryX=0.396;entryY=0;entryDx=0;entryDy=0;entryPerimeter=0;" edge="1" parent="1" target="dDXD2PsUgnubhzzMAjPv-17">
          <mxGeometry width="50" height="50" relative="1" as="geometry">
            <mxPoint x="481" y="1370" as="sourcePoint" />
            <mxPoint x="531" y="1320" as="targetPoint" />
          </mxGeometry>
        </mxCell>
        <mxCell id="dDXD2PsUgnubhzzMAjPv-21" value="" style="endArrow=none;html=1;rounded=0;" edge="1" parent="1">
          <mxGeometry width="50" height="50" relative="1" as="geometry">
            <mxPoint x="520" y="1350" as="sourcePoint" />
            <mxPoint x="720" y="1350" as="targetPoint" />
          </mxGeometry>
        </mxCell>
        <mxCell id="dDXD2PsUgnubhzzMAjPv-22" value="" style="shape=mxgraph.cisco.switches.workgroup_switch;sketch=0;html=1;pointerEvents=1;dashed=0;fillColor=#036897;strokeColor=#ffffff;strokeWidth=2;verticalLabelPosition=bottom;verticalAlign=top;align=center;outlineConnect=0;" vertex="1" parent="1">
          <mxGeometry x="710" y="1320" width="101" height="50" as="geometry" />
        </mxCell>
        <mxCell id="dDXD2PsUgnubhzzMAjPv-24" value="" style="endArrow=none;html=1;rounded=0;" edge="1" parent="1">
          <mxGeometry width="50" height="50" relative="1" as="geometry">
            <mxPoint x="-80" y="1180" as="sourcePoint" />
            <mxPoint x="30" y="1180" as="targetPoint" />
          </mxGeometry>
        </mxCell>
        <mxCell id="dDXD2PsUgnubhzzMAjPv-25" value="" style="endArrow=none;html=1;rounded=0;" edge="1" parent="1">
          <mxGeometry width="50" height="50" relative="1" as="geometry">
            <mxPoint x="-10" y="1160" as="sourcePoint" />
            <mxPoint x="50" y="1160" as="targetPoint" />
          </mxGeometry>
        </mxCell>
        <mxCell id="dDXD2PsUgnubhzzMAjPv-26" value="" style="endArrow=none;html=1;rounded=0;" edge="1" parent="1">
          <mxGeometry width="50" height="50" relative="1" as="geometry">
            <mxPoint x="-10" y="1160" as="sourcePoint" />
            <mxPoint x="-10" y="1060" as="targetPoint" />
          </mxGeometry>
        </mxCell>
        <mxCell id="dDXD2PsUgnubhzzMAjPv-27" value="" style="endArrow=none;html=1;rounded=0;exitX=1.026;exitY=0.714;exitDx=0;exitDy=0;exitPerimeter=0;" edge="1" parent="1" source="XvvMgI4vBFlba0enUQ60-4">
          <mxGeometry width="50" height="50" relative="1" as="geometry">
            <mxPoint x="-60" y="1110" as="sourcePoint" />
            <mxPoint x="-10" y="1060" as="targetPoint" />
          </mxGeometry>
        </mxCell>
        <mxCell id="dDXD2PsUgnubhzzMAjPv-28" value="" style="endArrow=none;html=1;rounded=0;" edge="1" parent="1">
          <mxGeometry width="50" height="50" relative="1" as="geometry">
            <mxPoint x="-350" y="1356" as="sourcePoint" />
            <mxPoint x="-260" y="1356" as="targetPoint" />
          </mxGeometry>
        </mxCell>
        <mxCell id="dDXD2PsUgnubhzzMAjPv-29" value="" style="endArrow=none;html=1;rounded=0;" edge="1" parent="1">
          <mxGeometry width="50" height="50" relative="1" as="geometry">
            <mxPoint x="-320" y="1330" as="sourcePoint" />
            <mxPoint x="-240" y="1330" as="targetPoint" />
          </mxGeometry>
        </mxCell>
        <mxCell id="dDXD2PsUgnubhzzMAjPv-30" value="" style="endArrow=none;html=1;rounded=0;" edge="1" parent="1">
          <mxGeometry width="50" height="50" relative="1" as="geometry">
            <mxPoint x="-320" y="1330" as="sourcePoint" />
            <mxPoint x="-320" y="1240" as="targetPoint" />
          </mxGeometry>
        </mxCell>
        <mxCell id="dDXD2PsUgnubhzzMAjPv-31" value="" style="endArrow=none;html=1;rounded=0;" edge="1" parent="1">
          <mxGeometry width="50" height="50" relative="1" as="geometry">
            <mxPoint x="-390" y="1240" as="sourcePoint" />
            <mxPoint x="-320" y="1240" as="targetPoint" />
          </mxGeometry>
        </mxCell>
        <mxCell id="dDXD2PsUgnubhzzMAjPv-32" value="" style="shape=mxgraph.cisco.computers_and_peripherals.laptop;sketch=0;html=1;pointerEvents=1;dashed=0;fillColor=#036897;strokeColor=#ffffff;strokeWidth=2;verticalLabelPosition=bottom;verticalAlign=top;align=center;outlineConnect=0;" vertex="1" parent="1">
          <mxGeometry x="-470" y="1200" width="90" height="61" as="geometry" />
        </mxCell>
        <mxCell id="dDXD2PsUgnubhzzMAjPv-33" value="" style="shape=mxgraph.cisco.computers_and_peripherals.pc;sketch=0;html=1;pointerEvents=1;dashed=0;fillColor=#036897;strokeColor=#ffffff;strokeWidth=2;verticalLabelPosition=bottom;verticalAlign=top;align=center;outlineConnect=0;" vertex="1" parent="1">
          <mxGeometry x="-410" y="1330" width="78" height="70" as="geometry" />
        </mxCell>
        <mxCell id="dDXD2PsUgnubhzzMAjPv-35" value="" style="ellipse;shape=cloud;whiteSpace=wrap;html=1;opacity=20;" vertex="1" parent="1">
          <mxGeometry x="-560" y="1110" width="300" height="340" as="geometry" />
        </mxCell>
        <mxCell id="dDXD2PsUgnubhzzMAjPv-36" value="" style="ellipse;shape=cloud;whiteSpace=wrap;html=1;opacity=20;" vertex="1" parent="1">
          <mxGeometry x="-260" y="935" width="300" height="340" as="geometry" />
        </mxCell>
        <mxCell id="dDXD2PsUgnubhzzMAjPv-37" value="" style="endArrow=none;html=1;rounded=0;" edge="1" parent="1">
          <mxGeometry width="50" height="50" relative="1" as="geometry">
            <mxPoint x="-130" y="1640" as="sourcePoint" />
            <mxPoint x="-130" y="1560" as="targetPoint" />
          </mxGeometry>
        </mxCell>
        <mxCell id="dDXD2PsUgnubhzzMAjPv-38" value="" style="endArrow=none;html=1;rounded=0;" edge="1" parent="1">
          <mxGeometry width="50" height="50" relative="1" as="geometry">
            <mxPoint x="-190" y="1640" as="sourcePoint" />
            <mxPoint x="-130" y="1640" as="targetPoint" />
          </mxGeometry>
        </mxCell>
        <mxCell id="dDXD2PsUgnubhzzMAjPv-39" value="" style="endArrow=none;html=1;rounded=0;" edge="1" parent="1">
          <mxGeometry width="50" height="50" relative="1" as="geometry">
            <mxPoint x="630" y="1640" as="sourcePoint" />
            <mxPoint x="630" y="1560" as="targetPoint" />
          </mxGeometry>
        </mxCell>
        <mxCell id="dDXD2PsUgnubhzzMAjPv-40" value="" style="endArrow=none;html=1;rounded=0;" edge="1" parent="1">
          <mxGeometry width="50" height="50" relative="1" as="geometry">
            <mxPoint x="631" y="1640" as="sourcePoint" />
            <mxPoint x="681" y="1640" as="targetPoint" />
          </mxGeometry>
        </mxCell>
      </root>
    </mxGraphModel>
  </diagram>
</mxfile>
